<svg id="Capa_1" enable-background="new 0 0 512 512" height="512" viewBox="0 0 512 512" width="512" xmlns="http://www.w3.org/2000/svg"><g><path d="m450.626 230.327v-36.523c0-106.864-87.25-193.804-194.495-193.804-107.353 0-194.692 86.94-194.692 193.804v36.521c-34.992 6.978-61.439 37.814-61.439 74.693v.918c0 37.745 27.707 69.15 63.921 75.136 5.747 15.7 20.838 26.935 38.503 26.935h47.97v-62.137c24.92 30.724 62.956 50.399 105.507 50.399 42.813 0 81.056-19.919 105.967-50.97v79.661c0 26.698-18.463 49.166-43.291 55.307v-53.276h-54.443c-35.483 0-64.351 28.867-64.351 64.351v20.658h105.119c47.994 0 87.041-39.046 87.041-87.04v-16.953h17.699c17.666 0 32.757-11.236 38.504-26.937 36.178-5.99 63.855-37.392 63.855-75.134v-.918c-.001-36.875-26.419-67.707-61.375-74.691zm-389.187 119.23c-18.228-6.222-31.365-23.426-31.365-43.621v-.918c0-20.195 13.137-37.4 31.365-43.622zm227.063 132.369h-57.331c4.102-14.336 17.326-24.86 32.962-24.86h24.369zm-168.182-103.994h-17.896c-6.016 0-10.91-4.894-10.91-10.911v-123.088c0-6.016 4.894-10.911 10.91-10.911h17.896zm135.624-11.738c-.007 0-.013 0-.02 0-1.491-.241-8.946-5.787-15.984-27.162-1.839-5.585-3.452-11.661-4.84-18.11h41.603c-1.388 6.449-3.001 12.525-4.84 18.11-7.037 21.37-14.49 26.919-15.919 27.162zm-25.365-75.346c-.916-9.774-1.399-19.972-1.399-30.39 0-10.417.483-20.616 1.399-30.39h50.645c.916 9.774 1.399 19.972 1.399 30.39 0 10.417-.483 20.616-1.399 30.39zm25.28-136.126h.02c1.491.241 8.946 5.787 15.984 27.162 1.839 5.585 3.452 11.661 4.84 18.11h-41.603c1.388-6.449 3.001-12.525 4.84-18.11 7.036-21.37 14.489-26.918 15.919-27.162zm43.781 15.423c-.808-2.336-1.699-4.724-2.67-7.121 18.466 7.813 34.262 20.731 45.623 36.97h-35.218c-2.035-10.803-4.625-20.856-7.735-29.849zm-95.225 29.849h-35.205c11.349-16.222 27.124-29.131 45.564-36.946-4.394 10.875-7.836 23.458-10.359 36.946zm-54.02 67.345v-13.761c.524-8.118 1.967-15.988 4.228-23.509h45.769c-.861 10.064-1.286 20.286-1.286 30.39 0 10.357.438 20.54 1.28 30.39h-45.762c-2.262-7.522-3.705-15.392-4.229-23.51zm161.022-37.27h45.762c2.895 9.63 4.458 19.83 4.458 30.39s-1.563 20.76-4.458 30.39h-45.769c.861-10.064 1.286-20.286 1.286-30.39.001-10.358-.437-20.541-1.279-30.39zm-55.516-105.422c-40.971 0-77.763 18.237-102.685 47.019 11.007-46.63 52.971-81.439 102.915-81.439 50.212 0 92.36 35.183 103.091 82.191-24.93-29.213-61.996-47.771-103.321-47.771zm-86.692 196.275h35.218c2.035 10.803 4.625 20.856 7.734 29.849.808 2.337 1.699 4.724 2.67 7.121-18.464-7.812-34.261-20.73-45.622-36.97zm127.819 36.946c4.394-10.875 7.836-23.458 10.359-36.946h35.205c-11.348 16.223-27.123 29.131-45.564 36.946zm123.524 9.153c0 6.016-4.895 10.911-10.91 10.911h-17.699v-144.91h17.699c6.016 0 10.91 4.894 10.91 10.911zm0-162.587c-3.476-.961-7.132-1.486-10.91-1.486h-17.699v-6.984c0-74.887-60.925-135.811-135.811-135.811s-135.812 60.924-135.812 135.811v6.984h-17.896c-3.778 0-7.434.525-10.91 1.486v-10.63c0-90.281 73.847-163.729 164.617-163.729 90.662 0 164.421 73.449 164.421 163.729zm61.374 101.502c0 20.187-13.108 37.386-31.299 43.614v-88.147c18.191 6.228 31.299 23.427 31.299 43.614z"/></g></svg>